<?xml version="1.0" standalone="no"?>
<!DOCTYPE svg PUBLIC "-//W3C//DTD SVG 20010904//EN"
 "http://www.w3.org/TR/2001/REC-SVG-20010904/DTD/svg10.dtd">
<svg version="1.0" xmlns="http://www.w3.org/2000/svg"
 width="225.000000pt" height="225.000000pt" viewBox="0 0 225.000000 225.000000"
 preserveAspectRatio="xMidYMid meet">

<g transform="translate(0.000000,225.000000) scale(0.100000,-0.100000)"
fill="#000000" stroke="none">
<path d="M1140 2186 c0 -19 -6 -26 -27 -29 -26 -4 -26 -4 5 -6 28 -1 32 2 32
24 0 14 5 25 10 25 6 0 10 -11 10 -25 0 -20 5 -25 23 -24 16 1 18 2 5 6 -11 3
-18 14 -18 29 0 17 -5 24 -20 24 -15 0 -20 -7 -20 -24z"/>
<path d="M1113 2123 c36 -6 36 -40 0 -69 -34 -27 -38 -90 -9 -123 19 -21 19
-21 -26 -21 -25 0 -80 -9 -122 -20 -139 -35 -234 -102 -308 -216 -40 -63 -43
-65 -75 -59 -22 4 -33 2 -33 -6 0 -6 19 -75 41 -153 l42 -141 -7 -230 c-7
-250 4 -488 29 -612 54 -267 236 -413 515 -413 249 0 415 115 490 338 40 122
50 235 50 588 l0 331 40 142 c22 78 40 146 40 152 0 6 -13 7 -33 4 -32 -6 -35
-4 -75 59 -49 75 -116 137 -185 173 -62 31 -186 63 -245 63 -45 0 -45 0 -26
21 29 33 25 96 -9 123 -36 29 -36 63 1 69 25 4 25 4 -5 6 -30 1 -33 -2 -33
-29 0 -16 -4 -30 -10 -30 -5 0 -10 14 -10 30 0 27 -3 30 -32 29 -31 -2 -31 -2
-5 -6z m67 -93 c0 -26 4 -30 26 -30 19 0 25 -4 22 -17 -3 -15 -14 -18 -68 -18
-54 0 -65 3 -68 18 -3 13 3 17 22 17 22 0 26 4 26 30 0 23 4 30 20 30 16 0 20
-7 20 -30z m116 -141 c158 -22 268 -87 347 -207 26 -38 47 -75 47 -81 0 -20
-77 32 -96 64 -46 80 -125 153 -184 170 -24 7 -24 6 7 -26 39 -42 104 -149 97
-160 -3 -5 -17 4 -30 21 l-26 30 -34 -26 c-25 -19 -35 -23 -38 -13 -2 8 -9 32
-15 54 -15 57 -46 102 -83 125 -34 21 -76 35 -83 28 -2 -2 4 -44 14 -93 10
-50 17 -93 14 -98 -2 -4 -20 5 -39 19 l-34 26 -34 -25 c-18 -15 -36 -24 -38
-21 -3 2 0 30 7 62 24 109 26 132 7 132 -30 0 -96 -44 -119 -79 -13 -19 -28
-53 -34 -75 -6 -23 -13 -47 -15 -55 -3 -10 -13 -6 -38 13 l-35 26 -24 -31
c-13 -17 -27 -27 -30 -22 -8 13 55 118 96 162 31 32 31 33 7 26 -59 -17 -137
-88 -185 -170 -16 -29 -83 -80 -92 -71 -7 7 26 66 68 122 108 145 331 210 595
173z m-201 -78 c-8 -48 -6 -46 -69 -56 l-49 -7 20 34 c17 29 91 83 101 73 2
-2 1 -22 -3 -44z m207 -3 c21 -21 38 -43 38 -49 0 -11 -88 -3 -102 10 -4 3
-10 25 -14 48 -6 40 -5 41 16 36 13 -3 40 -23 62 -45z m-458 -53 c-33 -50 -67
-75 -81 -61 -5 5 101 116 111 116 4 0 -10 -25 -30 -55z m675 -11 c47 -53 52
-68 17 -52 -14 6 -41 35 -61 65 -44 66 -19 59 44 -13z m-328 -63 c20 -16 21
-21 10 -35 -12 -14 -10 -15 17 -10 24 5 32 2 41 -14 15 -29 14 -52 -6 -74 -16
-18 -39 -25 -29 -9 8 12 -21 34 -34 26 -14 -8 -13 -38 2 -53 19 -19 57 -14 83
12 l24 24 23 -25 c27 -29 81 -29 86 1 6 30 -17 44 -34 21 -15 -20 -15 -20 -30
-1 -22 31 -18 65 11 78 21 9 28 8 46 -8 20 -18 20 -18 15 6 -5 19 0 29 19 43
24 17 25 17 41 -8 14 -21 14 -28 3 -42 -12 -15 -12 -16 8 -11 32 8 55 -13 51
-46 -4 -33 -47 -71 -44 -39 0 10 -6 18 -14 18 -9 0 -15 -9 -15 -25 0 -21 5
-25 36 -28 25 -2 40 3 54 18 l18 20 18 -30 c10 -16 29 -32 43 -36 31 -7 66 11
66 35 0 28 -27 34 -44 10 -14 -20 -14 -20 -30 3 -20 29 -20 52 0 69 13 11 21
11 44 -3 23 -13 28 -13 23 -2 -3 8 5 18 22 24 45 17 55 13 45 -17 -5 -16 -18
-60 -29 -99 l-21 -71 -72 14 c-285 54 -616 56 -926 4 l-102 -17 -21 71 c-11
38 -24 83 -29 99 -10 28 -9 28 23 22 17 -3 36 -12 41 -20 7 -11 15 -11 33 -3
45 20 74 -41 35 -76 -16 -15 -19 -15 -30 4 -11 17 -16 18 -28 9 -21 -18 -17
-39 11 -52 34 -15 73 3 88 42 l11 29 23 -25 c17 -19 31 -24 56 -22 27 3 33 8
35 31 3 23 0 28 -15 25 -10 -2 -17 -12 -17 -21 2 -16 0 -17 -20 -4 -29 20 -34
72 -7 86 11 6 28 8 38 4 16 -6 16 -5 4 10 -11 14 -11 21 3 42 16 25 17 25 41
8 18 -13 24 -24 20 -41 -5 -22 -5 -22 19 -7 49 32 88 -22 52 -71 -15 -19 -15
-19 -30 1 -17 23 -40 9 -34 -21 5 -29 51 -29 83 -1 l28 23 23 -23 c25 -25 63
-30 82 -11 15 15 16 45 2 53 -13 8 -42 -14 -34 -26 9 -15 -8 -10 -28 8 -20 18
-23 45 -7 75 9 16 17 19 41 14 27 -5 29 -4 17 10 -11 14 -10 19 10 35 13 11
27 19 31 19 4 0 18 -8 31 -19z m319 -256 c69 -9 141 -21 161 -26 l37 -9 -10
-40 c-8 -30 -15 -39 -27 -36 -9 3 -61 13 -116 23 -78 14 -158 18 -365 18 -255
0 -314 -5 -521 -41 -35 -6 -36 -5 -46 34 l-11 41 49 10 c48 10 237 36 329 45
89 8 397 -3 520 -19z m-367 -142 c15 -15 19 -15 35 0 28 25 79 22 105 -7 19
-22 23 -23 54 -9 30 12 38 12 68 -3 33 -15 62 -41 54 -48 -2 -2 -26 -13 -52
-25 -45 -19 -50 -19 -65 -5 -11 12 -27 15 -55 11 -21 -3 -61 1 -88 9 -43 13
-52 13 -86 -1 -25 -11 -52 -14 -79 -10 -30 4 -44 2 -53 -9 -11 -13 -19 -11
-64 9 -29 14 -53 29 -55 34 -5 14 48 51 74 51 13 0 35 -5 49 -12 21 -9 28 -9
38 4 31 40 82 44 120 11z m-238 -97 l70 -35 -43 0 c-45 -1 -92 -34 -92 -66 0
-11 -10 -15 -35 -15 -91 0 -143 84 -82 132 36 29 102 23 182 -16z m699 13 c59
-47 7 -133 -78 -127 -34 2 -42 7 -44 25 -5 32 -39 53 -87 54 l-40 0 70 35 c82
40 139 45 179 13z m-326 -15 c69 -6 79 -20 35 -50 -23 -15 -50 -18 -148 -19
-113 -1 -122 0 -153 23 -42 32 -29 51 31 45 23 -3 53 0 67 6 14 6 43 8 65 5
22 -3 68 -7 103 -10z m-268 -66 l35 -22 -38 -6 c-45 -8 -54 -16 -66 -57 -9
-30 -7 -32 42 -59 29 -15 55 -32 59 -38 5 -7 8 -3 8 8 0 28 29 56 57 56 33 0
61 -59 45 -95 -15 -32 -53 -33 -82 -3 -11 12 -20 17 -20 11 0 -6 7 -16 15 -23
8 -7 15 -28 15 -47 0 -18 9 -51 20 -73 25 -50 25 -82 0 -105 -27 -24 -25 -53
3 -64 13 -5 30 -23 37 -40 10 -26 10 -35 -3 -54 -9 -13 -13 -35 -10 -50 6 -33
-25 -77 -39 -55 -6 10 -8 8 -8 -4 0 -10 -9 -27 -20 -38 -16 -16 -30 -19 -89
-16 -38 2 -75 7 -82 11 -16 11 28 44 59 45 28 0 55 14 105 53 29 23 37 36 35
55 -2 14 -10 28 -18 30 -13 5 -13 3 -1 -12 17 -20 1 -66 -23 -66 -8 0 -26 -11
-40 -25 -29 -29 -66 -33 -66 -9 0 12 -6 10 -21 -10 -22 -28 -75 -36 -97 -14
-17 17 -15 58 5 81 17 18 17 20 -10 41 -21 17 -24 25 -15 34 7 7 22 12 35 12
17 0 23 6 23 21 0 18 -4 20 -36 15 -42 -7 -60 0 -44 19 6 7 9 19 8 26 -4 21
47 23 77 3 14 -9 35 -34 45 -54 11 -21 26 -40 35 -44 22 -8 99 36 104 60 3 16
0 15 -18 -6 -16 -20 -23 -22 -29 -12 -7 11 -10 9 -15 -7 -7 -28 -43 -27 -58 2
-7 12 -22 34 -35 50 -13 15 -21 34 -17 42 6 17 -13 45 -30 45 -6 0 -2 -6 9
-14 12 -10 16 -18 9 -24 -15 -14 -135 -25 -135 -13 0 14 42 205 46 209 1 2 12
1 23 -3 16 -5 21 -15 21 -43 0 -34 3 -39 47 -59 l47 -21 64 32 c63 32 64 33
36 39 -16 3 -51 16 -79 28 l-50 22 44 8 c31 6 53 4 78 -6 29 -12 33 -12 24 -1
-20 24 -97 39 -165 32 -87 -9 -96 -4 -96 53 0 75 8 91 44 91 20 0 39 -9 55
-25 13 -14 31 -25 40 -24 12 0 11 2 -4 9 -25 9 -40 28 -49 57 -18 58 84 85
154 41z m442 5 c10 -9 18 -26 18 -39 0 -19 6 -23 38 -26 l37 -3 0 -70 0 -70
-76 3 c-80 4 -141 -8 -174 -32 -18 -13 -15 -13 21 -1 48 16 139 9 108 -9 -11
-5 -45 -20 -78 -32 l-59 -21 64 -30 c64 -30 64 -30 104 -12 34 15 42 24 51 61
12 49 40 64 48 26 48 -214 51 -197 -26 -193 -56 3 -64 6 -70 27 -5 20 -6 19
-7 -9 -1 -17 -6 -35 -11 -38 -6 -4 -22 -24 -36 -46 -25 -40 -60 -52 -70 -24
-4 8 -11 12 -17 8 -5 -3 -17 3 -24 13 -14 19 -15 19 -11 -1 2 -12 13 -21 26
-23 12 -2 22 -7 22 -12 0 -4 7 -11 16 -14 20 -8 64 19 64 38 0 25 70 77 98 74
16 -2 27 -9 27 -18 0 -8 4 -21 8 -28 11 -16 -15 -26 -47 -18 -18 4 -25 1 -29
-14 -4 -15 1 -19 26 -22 32 -3 54 -38 24 -38 -30 0 -38 -26 -17 -53 24 -31 25
-45 3 -69 -21 -24 -69 -23 -90 2 -12 13 -20 16 -29 9 -21 -18 -65 1 -80 35 -7
17 -13 25 -14 19 0 -21 -18 -15 -36 12 -13 20 -14 28 -4 40 8 9 9 15 2 15 -17
0 -24 -19 -18 -45 7 -28 102 -95 134 -95 25 0 72 -20 72 -31 0 -15 -24 -22
-89 -25 -74 -4 -100 11 -102 55 -1 17 -3 20 -6 9 -6 -23 -16 -23 -37 1 -13 14
-16 28 -11 54 4 21 3 37 -4 41 -26 16 0 96 31 96 28 0 33 28 9 54 -27 28 -27
70 0 131 11 26 18 56 16 67 -4 12 2 29 14 41 10 11 19 28 18 36 0 14 -1 14 -6
1 -16 -45 -80 -69 -100 -37 -12 20 -3 60 20 85 27 29 43 28 72 -4 23 -24 24
-25 57 -9 72 34 75 37 66 72 -10 37 -19 45 -68 53 l-35 6 35 22 c42 26 106 29
132 5z m-207 -28 c0 -11 -76 -118 -80 -113 -61 73 -92 117 -85 120 23 7 165 1
165 -7z m-157 -50 c34 -32 35 -34 14 -35 -13 0 -34 -12 -47 -26 l-24 -26 -32
18 c-47 28 -56 47 -36 78 26 39 77 36 125 -9z m264 18 c37 -33 15 -77 -49 -97
-16 -5 -23 -2 -28 13 -4 12 -20 24 -38 29 l-32 9 34 31 c38 36 83 42 113 15z
m-159 -194 c32 -8 37 -14 37 -39 0 -55 -79 -81 -121 -39 -13 13 -19 30 -17 47
3 24 16 33 58 41 3 0 22 -4 43 -10z m-234 -41 c19 -7 22 -11 12 -21 -16 -16
-117 -16 -133 1 -11 11 -10 13 7 12 35 -4 45 0 45 16 0 16 9 15 69 -8z m485 6
c4 -11 13 -14 27 -11 31 8 17 -15 -15 -26 -30 -10 -106 6 -106 22 0 8 51 28
76 30 7 1 15 -6 18 -15z m-294 -155 c0 -36 -34 -78 -51 -62 -9 9 -7 18 10 39
11 15 21 38 21 53 0 20 2 23 10 11 5 -8 10 -27 10 -41z m46 25 c1 -14 11 -36
23 -48 12 -12 21 -25 21 -29 0 -12 -35 -8 -48 5 -17 17 -15 98 2 98 1 0 2 -12
2 -26z m-16 -256 c0 -31 7 -42 49 -77 48 -40 55 -43 130 -41 34 1 38 -6 45
-86 l7 -70 -247 0 -246 1 6 50 c3 28 6 63 6 79 0 28 1 28 44 24 53 -6 88 8
139 55 31 29 37 41 35 69 -1 19 2 40 6 47 13 20 26 -6 26 -51z"/>
<path d="M1435 1029 c-16 -10 -25 -19 -19 -19 7 0 22 9 35 20 30 24 23 24 -16
-1z"/>
</g>
</svg>
